# xmcd
#
# Track frame offsets:
# 150
# 17101
# 32681
# 45843
# 61008
# 77479
# 94717
# 109733
# 124682
# 143651
# 158022
# 175489
# 185722
# 203941
# 218583
# 231855
# 249212
#
# Disc length: 3561 seconds
#
#
# Revision: 0
# Processed by: cddbd v1.5.1PL0 Copyright (c) Steve Scherf et al.
# Submitted via: FreeRIP 2.90 
#
DISCID=d40de711
DTITLE=Edson and Hudson - Jad and Jackson - Breno Reis and Marco - 3 X 1
DYEAR=2004
DGENRE=pop
TTITLE0=Cara de Safado
TTITLE1=Quer Namorar Comingo
TTITLE2=Não Era Assim
TTITLE3=Na Minha Vida
TTITLE4=Nada na Vida é pra Sempre
TTITLE5=Teus Carinhos
TTITLE6=Já Sofri
TTITLE7=Nosso Amor
TTITLE8=Outra Vez
TTITLE9=Saudade
TTITLE10=Com Todos Menos Comigo
TTITLE11=Dor no Peito
TTITLE12=Cara na Porta
TTITLE13=Pé de Pano
TTITLE14=Morena
TTITLE15=Reis e Rainhas
TTITLE16=Felicidade
EXTD=
EXTT0=
EXTT1=
EXTT2=
EXTT3=
EXTT4=
EXTT5=
EXTT6=
EXTT7=
EXTT8=
EXTT9=
EXTT10=
EXTT11=
EXTT12=
EXTT13=
EXTT14=
EXTT15=
EXTT16=
PLAYORDER=
